<?xml version="1.0" encoding="UTF-8" standalone="no"?>
<svg
   width="117.19mm"
   height="30.11mm"
   viewBox="0 0 332.18 85.35"
   version="1.1"
   id="svg68"
   sodipodi:docname="logo-eng.svg"
   inkscape:version="1.2.2 (732a01da63, 2022-12-09)"
   xmlns:inkscape="http://www.inkscape.org/namespaces/inkscape"
   xmlns:sodipodi="http://sodipodi.sourceforge.net/DTD/sodipodi-0.dtd"
   xmlns="http://www.w3.org/2000/svg"
   xmlns:svg="http://www.w3.org/2000/svg">
  <defs
     id="defs72">
    <rect
       x="126.33952"
       y="77.8604"
       width="311.80887"
       height="26.810421"
       id="rect562" />
  </defs>
  <sodipodi:namedview
     id="namedview70"
     pagecolor="#ffffff"
     bordercolor="#000000"
     borderopacity="0.25"
     inkscape:showpageshadow="2"
     inkscape:pageopacity="0.0"
     inkscape:pagecheckerboard="0"
     inkscape:deskcolor="#d1d1d1"
     inkscape:document-units="mm"
     showgrid="false"
     inkscape:zoom="2.7228219"
     inkscape:cx="215.76879"
     inkscape:cy="57.293501"
     inkscape:window-width="1920"
     inkscape:window-height="1017"
     inkscape:window-x="-8"
     inkscape:window-y="-8"
     inkscape:window-maximized="1"
     inkscape:current-layer="a"
     showguides="true">
    <sodipodi:guide
       position="93.373977,40.176905"
       orientation="1,0"
       id="guide1062"
       inkscape:locked="false" />
  </sodipodi:namedview>
  <g
     id="a">
    <path
       id="text560"
       style="font-size:16px;font-family:Arial;-inkscape-font-specification:Arial;white-space:pre;shape-inside:url(#rect562);fill:#000000;fill-opacity:1;stroke:none;stroke-width:0.771361"
       d="m 107.09218,61.140652 c -2.22148,0 -3.86335,1.727885 -3.86335,4.369008 0,2.517712 1.5427,4.21985 3.73955,4.21985 2.12279,0 3.86333,-1.517667 3.86333,-4.380944 0,-2.468345 -1.46863,-4.207914 -3.73953,-4.207914 z m 88.50341,0 c -2.22147,0 -3.86334,1.727885 -3.86334,4.369008 0,2.517712 1.54269,4.21985 3.73954,4.21985 2.12278,0 3.86334,-1.517667 3.86334,-4.380944 0,-2.468345 -1.46865,-4.207914 -3.73954,-4.207914 z m 28.26207,0 c -1.61677,0 -2.6909,0.962458 -2.6909,2.258341 0,1.172461 0.83957,1.875464 2.19717,2.35679 1.12311,0.431957 1.56771,0.876699 1.56771,1.654227 0,0.839237 -0.64234,1.418549 -1.74074,1.418549 -0.74051,0 -1.44436,-0.246758 -1.92573,-0.542957 l -0.27146,0.90095 c 0.44431,0.296197 1.32188,0.542958 2.12411,0.542958 1.96229,0 2.91168,-1.122473 2.91168,-2.406015 0,-1.221829 -0.71565,-1.900266 -2.12261,-2.443304 -1.14779,-0.444301 -1.65421,-0.827474 -1.65421,-1.605003 0,-0.567724 0.4323,-1.245521 1.56767,-1.245521 0.75287,0 1.30816,0.24569 1.57968,0.393793 l 0.29682,-0.875592 c -0.37024,-0.209811 -0.9876,-0.407216 -1.83919,-0.407216 z m 6.0844,0 c -1.61677,0 -2.6909,0.962458 -2.6909,2.258341 0,1.172461 0.83957,1.875464 2.19718,2.35679 1.1231,0.431957 1.5677,0.876699 1.5677,1.654227 0,0.839237 -0.64232,1.418549 -1.74074,1.418549 -0.74052,0 -1.44293,-0.246758 -1.92422,-0.542957 l -0.27147,0.90095 c 0.44429,0.296197 1.32039,0.542958 2.12258,0.542958 1.96232,0 2.91171,-1.122473 2.91171,-2.406015 0,-1.221829 -0.71564,-1.900266 -2.12261,-2.443304 -1.1478,-0.444301 -1.65423,-0.827474 -1.65423,-1.605003 0,-0.567724 0.43231,-1.245521 1.56771,-1.245521 0.75286,0 1.30813,0.24569 1.57964,0.393793 l 0.29684,-0.875592 c -0.37026,-0.209811 -0.9876,-0.407216 -1.83919,-0.407216 z m 45.35627,0 c -2.5794,0 -4.34366,1.764909 -4.34366,4.369008 0,2.727523 1.76452,4.21985 4.10946,4.21985 1.01203,0 1.80226,-0.209751 2.19718,-0.40722 l -0.22223,-0.850232 c -0.43197,0.209809 -1.09857,0.344567 -1.75269,0.344567 -2.02406,0 -3.19659,-1.307874 -3.19659,-3.344254 0,-2.184484 1.29582,-3.43077 3.24584,-3.43077 0.69113,0 1.27078,0.1471 1.67806,0.344569 l 0.25953,-0.875592 c -0.28384,-0.148101 -0.93819,-0.369926 -1.9749,-0.369926 z m 22.84444,0 c -2.22148,0 -3.86334,1.727885 -3.86334,4.369008 0,2.517712 1.5427,4.21985 3.73955,4.21985 2.12276,0 3.86331,-1.517667 3.86331,-4.380944 0,-2.468345 -1.46864,-4.207914 -3.73952,-4.207914 z m 13.84837,0 c -2.22147,0 -3.86333,1.727885 -3.86333,4.369008 0,2.517712 1.54269,4.21985 3.73953,4.21985 2.12279,0 3.86333,-1.517667 3.86333,-4.380944 0,-2.468345 -1.46865,-4.207914 -3.73953,-4.207914 z m -107.25031,0.04921 c -2.78926,0 -4.49241,1.813745 -4.50476,4.294428 0,1.295883 0.44319,2.406999 1.15901,3.098134 0.81456,0.777529 1.85121,1.097847 3.11007,1.097847 1.1231,0 2.07384,-0.283657 2.55517,-0.456442 v -3.999083 h -2.74014 V 66.0899 h 1.69152 v 2.480596 c -0.24683,0.123414 -0.72847,0.222256 -1.43196,0.222256 -1.93766,0 -3.20853,-1.247249 -3.20853,-3.357679 0,-2.085751 1.3202,-3.344255 3.34426,-3.344255 0.83923,0 1.39489,0.160528 1.83917,0.357992 l 0.25956,-0.877084 c -0.35792,-0.172786 -1.11076,-0.381859 -2.07337,-0.381859 z m 116.39554,0 c -2.78918,0 -4.49238,1.813745 -4.50474,4.294428 0,1.295883 0.44317,2.406999 1.159,3.098134 0.81457,0.777529 1.85121,1.097847 3.11008,1.097847 1.12311,0 2.07384,-0.283657 2.55516,-0.456442 v -3.999078 h -2.74014 V 66.0899 h 1.69153 v 2.480596 c -0.24684,0.123414 -0.72849,0.222256 -1.43198,0.222256 -1.93764,0 -3.20852,-1.247249 -3.20852,-3.357679 0,-2.085751 1.3202,-3.344255 3.34425,-3.344255 0.83926,0 1.3949,0.160528 1.83919,0.357992 l 0.25955,-0.877084 c -0.3579,-0.172786 -1.1107,-0.381859 -2.07338,-0.381859 z m -140.09172,0.02386 c -0.86393,0 -1.54309,0.0747 -2.06145,0.161096 v 8.218931 h 1.074 v -3.330828 c 0.24683,0.06171 0.54275,0.07309 0.86366,0.07309 1.04899,0 1.97402,-0.308141 2.54174,-0.912883 0.41962,-0.431963 0.64288,-1.025189 0.64288,-1.778034 0,-0.740503 -0.27279,-1.344314 -0.7294,-1.739253 -0.49366,-0.4443 -1.27003,-0.69212 -2.33143,-0.692121 z m 6.5647,0 c -0.74052,0 -1.51691,0.06195 -2.05996,0.17303 v 8.206997 h 1.07249 v -3.6038 h 1.01283 c 0.975,0.03703 1.41933,0.469159 1.66616,1.616938 0.23449,1.036705 0.41917,1.740027 0.55489,1.986862 h 1.11127 c -0.17279,-0.320887 -0.36989,-1.122084 -0.6414,-2.282208 -0.19749,-0.86392 -0.58137,-1.455946 -1.22314,-1.678092 v -0.03728 c 0.87626,-0.296198 1.56769,-1.024188 1.56769,-2.122603 0,-0.641769 -0.23371,-1.209395 -0.65332,-1.579644 -0.51836,-0.468988 -1.25973,-0.680188 -2.40751,-0.680188 z m 23.15322,0 c -0.74051,0 -1.5169,0.06195 -2.05996,0.17303 v 8.206997 h 1.07251 v -3.6038 h 1.01279 c 0.97503,0.03703 1.41938,0.469159 1.66618,1.616938 0.23449,1.036705 0.41913,1.740027 0.55488,1.986862 h 1.11128 c -0.17278,-0.320887 -0.36989,-1.122084 -0.64141,-2.282208 -0.19748,-0.86392 -0.58137,-1.455946 -1.22315,-1.678092 v -0.03728 c 0.87628,-0.296198 1.56773,-1.024188 1.56773,-2.122603 0,-0.641769 -0.23372,-1.209395 -0.65335,-1.579644 -0.51835,-0.468988 -1.25978,-0.680188 -2.4075,-0.680188 z m -116.604394,0.06266 -0.58025,8.317379 h 1.024755 l 0.222261,-3.566508 c 0.07404,-1.246517 0.134917,-2.640187 0.159601,-3.676892 h 0.02536 c 0.234493,0.987339 0.567174,2.059922 0.962111,3.232383 l 1.345458,3.961791 h 0.814444 l 1.469263,-4.034879 c 0.419631,-1.135434 0.764771,-2.184294 1.048631,-3.15929 h 0.0373 c -0.0123,1.036706 0.0606,2.430253 0.12233,3.590376 l 0.2103,3.653024 h 1.04864 l -0.51761,-8.31738 h -1.37081 l -1.479713,4.022951 c -0.370251,1.049047 -0.667271,1.96206 -0.87709,2.801297 h -0.0373 c -0.209728,-0.863922 -0.492652,-1.776938 -0.838222,-2.8013 l -1.420041,-4.022951 z m 17.179214,0 2.71477,8.317379 h 1.18588 l 2.97431,-8.317379 h -1.14855 l -1.40662,4.109466 c -0.37025,1.086072 -0.71567,2.135479 -0.95018,3.098134 h -0.0253 c -0.22214,-0.974997 -0.5296,-1.986972 -0.88752,-3.110067 l -1.29624,-4.097533 z m 7.77589,0 v 8.317379 h 4.6778 V 68.69281 h -3.6038 v -2.998191 h 3.23238 v -0.889017 h -3.23238 v -2.628264 h 3.41735 v -0.900951 z m 6.42898,0 -0.57874,8.317379 h 1.02326 l 0.22226,-3.566508 c 0.074,-1.246517 0.13639,-2.640187 0.16109,-3.676892 h 0.0238 c 0.23449,0.987339 0.56865,2.059922 0.96359,3.232383 l 1.34546,3.961791 h 0.81445 l 1.46777,-4.034883 c 0.41962,-1.135435 0.76629,-2.184296 1.0501,-3.159291 h 0.0358 c -0.0123,1.036705 0.0621,2.430253 0.12381,3.590375 l 0.21031,3.653025 h 1.04865 l -0.51762,-8.317379 h -1.37079 l -1.48122,4.02295 c -0.37025,1.049047 -0.66582,1.962061 -0.87558,2.801297 h -0.0373 c -0.20983,-0.863919 -0.49423,-1.776935 -0.83978,-2.801297 l -1.41857,-4.02295 z m 9.56588,0 v 8.317379 h 4.67777 V 68.69281 h -3.60378 v -2.998191 h 3.23239 v -0.889017 h -3.23239 v -2.628264 h 3.41883 v -0.900951 z m 6.07248,0 v 8.317379 h 1.01131 v -3.553084 c 0,-1.382278 -0.025,-2.383215 -0.0864,-3.432261 l 0.0374,-0.01193 c 0.41959,0.900948 0.9757,1.851804 1.55577,2.777435 l 2.6402,4.219845 h 1.08592 v -8.317375 h -1.01135 v 3.479995 c 0,1.29588 0.0251,2.308079 0.1238,3.418837 l -0.0253,0.01193 c -0.39492,-0.85158 -0.87605,-1.727854 -1.49312,-2.70285 l -2.66556,-4.207914 z m 7.17029,0 v 0.912881 h 2.52982 v 7.404498 h 1.08592 v -7.404493 h 2.54324 V 61.27639 Z m 66.99098,0 v 8.317379 h 4.67778 V 68.69281 h -3.60378 v -2.998191 h 3.23387 v -0.889017 h -3.23387 v -2.628264 h 3.41882 v -0.900951 z m 42.94876,0 v 0.912881 h 2.53131 v 7.404498 h 1.08592 v -7.404493 h 2.54175 V 61.27639 Z m 7.08527,0 v 8.317379 h 4.67781 V 68.69281 h -3.60382 v -2.998191 h 3.23239 v -0.889017 h -3.23239 v -2.628264 h 3.41735 v -0.900951 z m 13.22937,0 v 8.317379 h 1.07396 v -3.899143 h 4.02445 v 3.899143 h 1.08593 v -8.317379 h -1.08593 v 3.479995 h -4.02445 v -3.479995 z m 8.04739,0 v 8.317379 h 1.01132 v -3.553084 c 0,-1.382278 -0.0233,-2.383215 -0.085,-3.432261 l 0.0359,-0.01193 c 0.41957,0.900948 0.9757,1.851804 1.55576,2.777435 l 2.6417,4.219845 h 1.08592 v -8.317375 h -1.01284 v 3.479995 c 0,1.29588 0.0251,2.308079 0.12381,3.418837 l -0.0253,0.01193 c -0.39494,-0.85158 -0.87604,-1.727854 -1.49314,-2.70285 l -2.66555,-4.207914 z m 16.62431,0 v 8.317379 h 4.62856 V 68.69281 h -3.55457 v -7.416427 z m 21.04256,0 2.62976,4.78816 v 3.529219 h 1.08588 V 66.05261 l 2.78939,-4.776228 h -1.22314 l -1.1963,2.295633 c -0.3209,0.629429 -0.6053,1.17235 -0.83979,1.715385 h -0.0238 c -0.25917,-0.580062 -0.50699,-1.085956 -0.82786,-1.715385 l -1.17243,-2.295633 z m -217.2766,0.739848 c 1.78957,0 2.65364,1.727761 2.65364,3.381545 0,1.888285 -0.96238,3.456129 -2.66556,3.456129 -1.69082,0 -2.65363,-1.592405 -2.65363,-3.369613 0,-1.826571 0.88834,-3.468061 2.66555,-3.468061 z m 88.50341,0 c 1.78957,0 2.65214,1.727761 2.65214,3.381545 0,1.888285 -0.96241,3.456129 -2.66556,3.456129 -1.69079,0 -2.65362,-1.592405 -2.65362,-3.369613 0,-1.826571 0.88982,-3.468061 2.66704,-3.468061 z m 102.54719,0 c 1.78955,0 2.65362,1.727761 2.65362,3.381545 0,1.888285 -0.96239,3.456129 -2.66556,3.456129 -1.69082,0 -2.65362,-1.592405 -2.65362,-3.369613 0,-1.826571 0.88833,-3.468061 2.66556,-3.468061 z m 13.84687,0 c 1.78956,0 2.65364,1.727761 2.65364,3.381545 0,1.888285 -0.96241,3.456129 -2.66556,3.456129 -1.69079,0 -2.65362,-1.592405 -2.65362,-3.369613 0,-1.826571 0.88839,-3.468061 2.66554,-3.468061 z m -124.25651,0.02536 c 1.13548,0.01234 1.9123,0.480558 1.9123,1.554289 0,0.950313 -0.72724,1.579646 -1.87498,1.579646 h -1.09935 v -3.035489 c 0.1728,-0.04936 0.5437,-0.09845 1.06203,-0.09845 z m 23.15323,0 c 1.13546,0.01234 1.91229,0.480558 1.91229,1.554289 0,0.950313 -0.7272,1.579646 -1.87499,1.579646 h -1.09932 v -3.035489 c 0.17277,-0.04936 0.54372,-0.09845 1.06202,-0.09845 z m -29.76863,0.02386 c 1.18481,0 1.963,0.531945 1.963,1.630363 0,1.147778 -0.79097,1.77654 -2.0868,1.77654 -0.3579,0 -0.65302,-0.02481 -0.88751,-0.08651 v -3.233878 c 0.18511,-0.04937 0.54234,-0.08653 1.01131,-0.08653 z" />
  </g>
  <g
     id="b">
    <path
       d="m80.59,12.68c1.45,0,2.59,1.13,2.59,2.56s-1.14,2.59-2.61,2.59-2.62-1.13-2.62-2.59,1.16-2.56,2.62-2.56h.02Zm-.03.45c-1.16,0-2.04.95-2.04,2.11s.88,2.12,2.07,2.12c1.16.02,2.01-.93,2.01-2.11s-.85-2.12-2.03-2.12h-.02Zm-.45,3.52h-.5v-2.69c.27-.05.56-.08.93-.08.45,0,.68.08.85.21.16.11.27.32.27.56,0,.34-.24.55-.53.64v.03c.24.1.37.31.45.64.08.42.13.58.19.67h-.51c-.08-.1-.14-.34-.21-.71-.06-.29-.24-.42-.63-.42h-.32v1.13Zm0-1.51h.34c.37,0,.69-.11.69-.43,0-.26-.16-.43-.64-.43-.19,0-.31.02-.39.03v.84Z"
       style="fill:#1a171b;"
       id="path63" />
    <path
       d="m42.67,0C19.1,0,0,19.1,0,42.67s19.1,42.67,42.67,42.67c23.57,0,42.67-19.11,42.67-42.67S66.24,0,42.67,0Zm0,78.7c-19.9-.04-35.99-16.13-36.03-36.03.03-19.9,16.13-35.99,36.03-36.03,19.89.04,35.99,16.13,36.02,36.03-.04,19.89-16.13,35.99-36.02,36.03Zm25.36-60.85h-9.94l-5.39,5.12.02-5.12h-8.71l-.02,22.43h8.95v-8.78l10.04,20.24h10.7l-13.9-25.59,8.26-8.28ZM25.78,51.73h10.92v17.37h9.44v-17.37h10.14v-9.24h-30.5v9.24Zm7.05-11.45h10.08l-7.73-22.45h-12.83l-13.91,33.9h9.99l5.17-13.77h8.46l.77,2.32Zm-6.68-9.67l2.09-4.56,1.19,4.56h-3.28Zm135.29-12.79h-6.44v6.91h6.44v-6.91Zm-9.12,0h-6.44v6.91h6.44v-6.91Zm111.52,24.8v-4.08h23.83v-8.37h-23.83v-3.85h24.62v-8.5h-33.17l.03,33.86h33.17l-.03-9.06h-24.62Zm56.78-1.2c2.72-.15,5-1.2,6.87-3.14,1.89-1.95,2.83-4.28,2.83-7v-3.15c0-2.86-.92-5.3-2.74-7.31-1.83-2.01-4.15-3.01-6.96-3.01h-28.61l-.03,33.83h8.5l.03-10.22h8.11l10.2,10.26,12.07-.04-10.27-10.22Zm-20.11-8.33v-6.73h19.58c.47,0,.87.18,1.2.53.35.32.53.74.53,1.24v3.23c0,.47-.18.89-.53,1.24-.32.32-.72.49-1.2.49h-19.58Zm-58.46-15.28h-26.31v33.86s8.5,0,8.5,0v-10.26h17.81c2.81,0,5.21-.97,7.22-2.92,2.01-1.98,3.01-4.38,3.01-7.22v-3.15c0-2.83-1-5.25-3.01-7.26-2.01-2.04-4.41-3.06-7.22-3.06Zm1.73,13.55c0,.47-.18.89-.53,1.24-.32.32-.72.49-1.2.49h-17.8v-6.73h17.8c.47,0,.87.18,1.2.53.36.32.53.74.53,1.24v3.23Zm-127.07,3.15c2.33-2.07,5.71-5.34,10.14-9.83,2.19-2.3,4.38-4.59,6.6-6.87h-12.04c-2.57,2.51-5.12,5.02-7.66,7.53-5.14,5.05-8.95,8.92-11.43,11.6v-19.13h-8.55l.04,33.83h8.55l-.04-2.78c.77-.65,2.44-2.29,5-4.92,2.07-2.09,3.2-3.28,3.41-3.54,4.61,4.75,8.74,8.89,11.25,11.28h12.06s-16.27-16.19-16.27-16.19c-.38-.38-.74-.71-1.06-.97Zm47.39-16.71v23.6c0,.5-.17.93-.53,1.28-.32.32-.72.49-1.2.49h-17.49c-.47,0-.89-.16-1.24-.49-.33-.35-.49-.78-.49-1.28v-23.6h-8.51v23.6c0,2.83.99,5.25,2.97,7.26,2.01,2.01,4.43,3.01,7.26,3.01h17.49c2.81,0,5.21-1,7.22-3.01,2.01-2.01,3.01-4.43,3.01-7.26v-23.6h-8.5Zm38.44.02h-26.31v33.86s8.5,0,8.5,0v-10.26h17.81c2.8,0,5.21-.97,7.22-2.92,2-1.98,3.01-4.38,3.01-7.22v-3.15c0-2.83-1-5.25-3.01-7.26-2.01-2.04-4.42-3.06-7.22-3.06Zm1.73,13.55c0,.47-.18.89-.53,1.24-.33.32-.72.49-1.2.49h-17.8v-6.73h17.8c.48,0,.87.18,1.2.53.35.32.53.74.53,1.24v3.23Z"
       style="fill:#004a98; fill-rule:evenodd;"
       id="path65" />
  </g>
</svg>
